<svg width="62" height="62" viewBox="0 0 62 62" fill="none" xmlns="http://www.w3.org/2000/svg">
<path d="M31 17.6666C23.6667 17.6666 17.6667 23.6666 17.6667 31C17.6667 38.3333 23.6667 44.3333 31 44.3333C38.3333 44.3333 44.3333 38.3333 44.3333 31C44.3333 23.6666 38.3333 17.6666 31 17.6666ZM31 41.6666C25.1333 41.6666 20.3333 36.8666 20.3333 31C20.3333 25.1333 25.1333 20.3333 31 20.3333C36.8667 20.3333 41.6667 25.1333 41.6667 31C41.6667 36.8666 36.8667 41.6666 31 41.6666Z" fill="#FD9222"/>
<path d="M32.7333 29.6667H29.2667C28.6 29.6667 28.0667 29.1333 28.0667 28.4667C28.0667 27.8 28.6 27.2667 29.2667 27.2667H34.2C35 27.2667 35.5333 26.7333 35.5333 25.9333C35.5333 25.1333 35 24.6 34.2 24.6H32.3333V23.4C32.3333 22.6 31.8 22.0667 31 22.0667C30.2 22.0667 29.6667 22.6 29.6667 23.4V24.6H29.2667C27.1333 24.6 25.4 26.3333 25.4 28.4667C25.4 30.6 27.1333 32.3333 29.2667 32.3333H32.6C33.2667 32.3333 33.8 32.8666 33.8 33.5333C33.8 34.2 33.2667 34.7333 32.6 34.7333H27.6667C26.8667 34.7333 26.3333 35.2667 26.3333 36.0667C26.3333 36.8667 26.8667 37.4 27.6667 37.4H29.6667V38.6C29.6667 39.4 30.2 39.9333 31 39.9333C31.8 39.9333 32.3333 39.4 32.3333 38.6V37.4H32.7333C34.8667 37.4 36.6 35.6667 36.6 33.5333C36.6 31.4 34.8667 29.6667 32.7333 29.6667Z" fill="#FD9222"/>
<rect x="0.5" y="0.5" width="61" height="61" rx="30.5" stroke="white" stroke-opacity="0.5"/>
</svg>
